<?xml version="1.0" encoding="UTF-8"?>
<svg id="Layer_1" data-name="Layer 1" xmlns="http://www.w3.org/2000/svg" viewBox="0 0 130 187.81">
  <defs>
    <style>
      .cls-1, .cls-2, .cls-3 {
        fill: #fff;
      }

      .cls-2, .cls-3, .cls-4 {
        stroke: #fff;
        stroke-miterlimit: 10;
      }

      .cls-2, .cls-4 {
        stroke-width: 10px;
      }

      .cls-3 {
        stroke-width: 2px;
      }

      .cls-4 {
        fill: none;
      }
    </style>
  </defs>
  <rect class="cls-4" x="5" y="45.57" width="120" height="120" rx="26.5" ry="26.5"/>
  <circle class="cls-2" cx="47.9" cy="89.23" r="3.77"/>
  <circle class="cls-2" cx="82.27" cy="89.23" r="3.77"/>
  <path class="cls-1" d="M65.48,109.63c1.24,7.94-4.53,16.23-12.17,18.67-7.18,2.12-18.04-.22-22.72-6.35-4.1-5.19-3.2-15.98,4.55-16.87,3.32-.29,6.13,1.24,8.07,3.22,.41,.4-.13,1.08-.61,.79-3.74-2.28-9.83-1.8-9.26,3.48,.33,4.51,3.29,6.6,7.57,7.23,4.1,.57,8.12-1,11.88-2.39,4.33-1.82,7.98-4.55,11.74-8.09,.31-.32,.89-.13,.95,.31h0Z"/>
  <path class="cls-1" d="M65.65,109.33c4.49,4.23,8.87,7.35,14.41,9.06,2.87,.96,6.13,1.91,9.21,1.42,4.28-.64,7.24-2.73,7.57-7.23,.15-2.02-.47-3.65-2.43-4.42-1.95-.74-4.61-.33-6.82,.94-.24,.14-.55,.05-.69-.19-.11-.2-.08-.45,.08-.6,1.94-1.97,4.75-3.51,8.07-3.22,5.68,.47,7.83,7.17,6.68,12.03-.59,3.44-3.07,6.62-6,8.36-4.16,2.55-9.07,3.6-13.94,3.62-6.69,.1-12.96-4.58-15.65-10.43-1.34-2.83-1.98-6-1.44-9.03,.07-.44,.64-.62,.95-.31h0Z"/>
  <polygon class="cls-2" points="30.81 170.65 25.72 175.74 25.72 165.57 35.89 165.57 30.81 170.65"/>
  <rect class="cls-3" x="87.72" y="29.61" width="36.59" height="14.09" rx="2.93" ry="2.93" transform="translate(13.1 -26.19) rotate(15)"/>
  <path class="cls-3" d="M105.46,2.66h14.4c2.65,0,4.8,2.15,4.8,4.8V24.03h-24V7.46c0-2.65,2.15-4.8,4.8-4.8Z" transform="translate(7.29 -28.7) rotate(15)"/>
</svg>